<svg id="svg" version="1.1" xmlns="http://www.w3.org/2000/svg" xmlns:xlink="http://www.w3.org/1999/xlink" width="400" height="400" viewBox="0, 0, 400,400"><g id="svgg"><path id="path0" d="M69.600 124.838 C 19.994 129.118,-8.487 170.906,3.371 222.010 C 11.821 258.430,52.113 281.989,93.000 274.416 C 114.738 270.390,130.174 261.397,141.400 246.218 C 143.389 243.527,148.000 235.994,148.000 235.433 C 148.000 235.318,148.430 234.273,148.955 233.112 C 156.303 216.869,157.544 194.422,152.141 175.495 C 142.477 141.644,109.484 121.396,69.600 124.838 M338.800 124.838 C 307.482 127.540,283.172 145.819,274.215 173.400 C 272.078 179.978,272.099 179.899,271.450 184.200 C 269.890 194.552,269.572 201.876,270.405 208.284 C 270.627 209.998,270.991 212.750,271.212 214.400 C 274.445 238.487,291.667 260.721,313.609 269.134 C 314.374 269.427,315.360 269.820,315.800 270.007 C 332.104 276.941,356.983 277.293,373.200 270.819 C 382.325 267.176,390.766 261.204,396.580 254.278 C 399.814 250.424,399.985 251.131,394.900 247.329 C 392.535 245.560,386.674 241.183,381.876 237.602 L 373.151 231.092 372.498 232.046 C 362.120 247.194,339.080 251.017,322.561 240.332 C 301.520 226.720,296.105 192.800,311.455 170.758 C 325.162 151.075,353.403 147.570,370.037 163.488 L 371.874 165.246 376.405 161.523 C 378.897 159.475,382.488 156.540,384.385 155.000 C 393.980 147.211,395.600 145.811,395.600 145.316 C 395.600 144.220,388.380 137.563,384.368 134.960 C 371.569 126.654,356.512 123.310,338.800 124.838 M167.385 128.500 C 167.280 128.775,167.241 161.130,167.297 200.400 L 167.400 271.800 183.000 271.800 L 198.600 271.800 198.800 243.800 L 199.000 215.800 228.900 215.697 L 258.800 215.595 258.800 201.200 L 258.800 186.805 228.900 186.703 L 199.000 186.600 198.895 171.900 L 198.790 157.200 231.195 157.200 L 263.600 157.200 263.600 142.600 L 263.600 128.000 215.587 128.000 C 177.545 128.000,167.535 128.104,167.385 128.500 M86.548 154.202 C 100.591 156.651,111.493 164.620,117.790 177.041 C 118.783 178.998,119.596 180.879,119.597 181.220 C 119.599 181.561,119.764 182.011,119.964 182.220 C 122.318 184.680,123.569 204.090,121.845 211.400 C 116.436 234.335,99.541 247.150,75.857 246.283 C 52.400 245.423,35.849 229.423,33.566 205.400 C 30.448 172.577,55.132 148.724,86.548 154.202 " stroke="none" fill="#05447b" fill-rule="evenodd"></path><path id="path1" d="M0.060 96.900 C 0.094 150.195,0.251 192.450,0.410 190.800 C 5.010 143.169,49.263 114.496,100.000 126.272 C 143.919 136.465,167.232 182.314,151.725 228.000 C 147.083 241.674,134.938 257.382,124.498 263.213 C 123.894 263.551,122.590 264.347,121.600 264.983 C 118.277 267.119,111.042 270.353,106.000 271.955 C 99.255 274.100,98.982 274.160,89.800 275.552 C 83.079 276.570,66.513 275.887,58.400 274.257 C 34.365 269.429,12.807 251.665,5.417 230.600 C 5.031 229.500,4.568 228.240,4.387 227.800 C 2.694 223.672,0.736 214.197,0.255 207.800 C 0.189 206.920,0.104 249.805,0.067 303.100 L 0.000 400.000 200.000 400.000 L 400.000 400.000 400.000 325.600 C 400.000 284.680,399.919 251.200,399.819 251.200 C 399.720 251.200,399.086 252.003,398.411 252.984 C 396.166 256.248,385.560 266.000,384.257 266.000 C 384.152 266.000,382.718 266.797,381.069 267.772 C 365.176 277.168,339.931 278.801,318.964 271.788 C 293.810 263.375,276.781 244.392,271.252 218.600 C 271.016 217.500,270.649 215.790,270.437 214.800 C 269.581 210.807,269.192 200.070,269.646 193.000 C 271.633 162.090,290.395 137.521,319.123 128.211 C 324.408 126.498,325.635 126.174,330.400 125.230 C 344.598 122.420,363.927 124.149,375.096 129.229 C 376.028 129.653,376.904 130.000,377.041 130.000 C 379.026 130.000,389.767 137.733,393.737 142.021 C 396.503 145.009,396.883 145.904,395.700 146.647 C 395.118 147.013,392.044 149.511,388.200 152.741 C 387.397 153.416,382.790 157.157,380.000 159.400 C 379.179 160.060,377.202 161.680,375.607 163.000 C 374.011 164.320,372.451 165.580,372.140 165.800 C 371.711 166.104,371.168 165.759,369.887 164.369 C 357.310 150.719,332.057 150.906,317.458 164.758 C 315.493 166.622,311.200 171.739,311.200 172.217 C 311.200 172.360,310.860 172.954,310.444 173.538 C 307.247 178.031,304.465 186.568,303.582 194.600 C 302.179 207.358,306.342 222.649,313.547 231.199 C 316.992 235.287,317.395 235.681,320.600 238.104 C 325.102 241.507,330.417 243.931,335.683 244.984 C 345.493 246.944,357.927 244.483,364.495 239.281 C 366.457 237.727,369.893 234.322,371.200 232.636 C 371.970 231.643,372.846 230.823,373.146 230.815 C 373.782 230.798,374.243 231.126,388.900 242.058 L 400.000 250.336 400.000 125.168 L 400.000 0.000 200.000 0.000 L 0.000 0.000 0.060 96.900 M264.312 142.000 C 264.373 149.810,264.324 156.605,264.204 157.100 L 263.985 158.000 231.792 158.000 L 199.600 158.000 199.600 172.000 L 199.600 186.000 229.400 186.000 L 259.200 186.000 259.200 200.997 L 259.200 215.995 229.389 216.097 L 199.579 216.200 199.594 244.073 C 199.603 259.403,199.455 272.042,199.266 272.159 C 198.415 272.685,167.087 272.465,166.749 271.931 C 166.369 271.332,166.265 129.217,166.643 128.231 C 166.864 127.656,171.433 127.606,215.543 127.698 L 264.200 127.800 264.312 142.000 M68.330 155.120 C 66.422 155.494,64.727 155.935,64.563 156.100 C 64.400 156.265,63.941 156.400,63.543 156.400 C 63.146 156.400,61.641 156.940,60.200 157.600 C 58.759 158.260,57.436 158.800,57.260 158.800 C 56.373 158.800,49.237 163.990,46.869 166.359 C 28.432 184.796,30.025 220.454,50.000 236.446 C 53.803 239.491,54.389 239.835,60.200 242.422 C 70.417 246.971,86.787 246.684,97.511 241.768 C 98.672 241.235,99.726 240.800,99.854 240.800 C 99.981 240.800,101.731 239.645,103.743 238.234 C 110.159 233.732,114.851 228.048,117.815 221.186 C 118.620 219.324,119.412 217.530,119.575 217.200 C 119.862 216.620,120.658 213.287,121.563 208.869 C 122.095 206.277,122.143 193.804,121.631 191.477 C 121.428 190.555,120.951 188.360,120.571 186.600 C 119.158 180.052,115.015 172.363,110.083 167.135 C 107.824 164.740,100.656 159.200,99.817 159.200 C 99.670 159.200,98.610 158.771,97.463 158.246 C 89.774 154.729,77.203 153.380,68.330 155.120 " stroke="none" fill="#fbfbfc" fill-rule="evenodd"></path><path id="path2" d="M75.717 124.297 C 77.211 124.374,79.551 124.374,80.917 124.296 C 82.282 124.218,81.060 124.155,78.200 124.155 C 75.340 124.156,74.222 124.220,75.717 124.297 M344.700 124.296 C 346.075 124.374,348.325 124.374,349.700 124.296 C 351.075 124.218,349.950 124.154,347.200 124.154 C 344.450 124.154,343.325 124.218,344.700 124.296 M166.985 128.100 C 166.880 128.375,166.841 160.640,166.898 199.800 L 167.002 271.000 167.101 199.502 L 167.200 128.003 215.500 127.900 L 263.800 127.797 215.487 127.698 C 177.133 127.620,167.136 127.703,166.985 128.100 M132.400 143.310 C 132.400 143.371,133.795 144.766,135.500 146.410 L 138.600 149.400 135.610 146.300 C 132.833 143.421,132.400 143.017,132.400 143.310 M288.575 147.700 L 287.400 149.000 288.700 147.825 C 289.415 147.179,290.000 146.594,290.000 146.525 C 290.000 146.216,289.670 146.488,288.575 147.700 M198.886 172.476 C 198.839 179.888,198.935 186.036,199.100 186.139 C 199.265 186.241,199.354 182.337,199.298 177.462 C 199.105 160.642,198.973 159.044,198.886 172.476 M369.200 163.400 C 370.395 164.610,371.463 165.600,371.573 165.600 C 371.683 165.600,370.795 164.610,369.600 163.400 C 368.405 162.190,367.337 161.200,367.227 161.200 C 367.117 161.200,368.005 162.190,369.200 163.400 M46.187 166.500 L 43.800 169.000 46.300 166.613 C 48.622 164.395,48.983 164.000,48.687 164.000 C 48.626 164.000,47.501 165.125,46.187 166.500 M0.493 192.800 C 0.493 193.570,0.575 193.885,0.676 193.500 C 0.776 193.115,0.776 192.485,0.676 192.100 C 0.575 191.715,0.493 192.030,0.493 192.800 M122.093 193.200 C 122.093 193.970,122.175 194.285,122.276 193.900 C 122.376 193.515,122.376 192.885,122.276 192.500 C 122.175 192.115,122.093 192.430,122.093 193.200 M269.714 194.600 C 269.717 195.700,269.795 196.103,269.887 195.495 C 269.979 194.886,269.977 193.986,269.882 193.495 C 269.787 193.003,269.711 193.500,269.714 194.600 M33.693 196.000 C 33.693 196.770,33.775 197.085,33.876 196.700 C 33.976 196.315,33.976 195.685,33.876 195.300 C 33.775 194.915,33.693 195.230,33.693 196.000 M122.544 200.000 C 122.544 202.090,122.612 202.945,122.694 201.900 C 122.776 200.855,122.776 199.145,122.694 198.100 C 122.612 197.055,122.544 197.910,122.544 200.000 M302.944 200.000 C 302.944 202.090,303.012 202.945,303.094 201.900 C 303.176 200.855,303.176 199.145,303.094 198.100 C 303.012 197.055,302.944 197.910,302.944 200.000 M0.140 200.000 C 0.140 201.870,0.209 202.635,0.293 201.700 C 0.377 200.765,0.377 199.235,0.293 198.300 C 0.209 197.365,0.140 198.130,0.140 200.000 M33.693 204.000 C 33.693 204.770,33.775 205.085,33.876 204.700 C 33.976 204.315,33.976 203.685,33.876 203.300 C 33.775 202.915,33.693 203.230,33.693 204.000 M269.714 205.400 C 269.717 206.500,269.795 206.903,269.887 206.295 C 269.979 205.686,269.977 204.786,269.882 204.295 C 269.787 203.803,269.711 204.300,269.714 205.400 M0.493 207.200 C 0.493 207.970,0.575 208.285,0.676 207.900 C 0.776 207.515,0.776 206.885,0.676 206.500 C 0.575 206.115,0.493 206.430,0.493 207.200 M198.989 243.600 C 198.989 258.890,199.039 265.145,199.100 257.500 C 199.161 249.855,199.161 237.345,199.100 229.700 C 199.039 222.055,198.989 228.310,198.989 243.600 M394.778 256.700 L 393.400 258.200 394.900 256.822 C 396.296 255.538,396.584 255.200,396.278 255.200 C 396.212 255.200,395.537 255.875,394.778 256.700 M391.775 259.700 L 390.600 261.000 391.900 259.825 C 392.615 259.179,393.200 258.594,393.200 258.525 C 393.200 258.216,392.870 258.488,391.775 259.700 M167.062 272.100 C 167.164 272.265,174.336 272.400,183.000 272.400 C 191.664 272.400,198.836 272.265,198.938 272.100 C 199.040 271.935,191.868 271.800,183.000 271.800 C 174.132 271.800,166.960 271.935,167.062 272.100 M75.717 275.897 C 77.211 275.974,79.551 275.974,80.917 275.896 C 82.282 275.818,81.060 275.755,78.200 275.755 C 75.340 275.756,74.222 275.820,75.717 275.897 M344.700 275.896 C 346.075 275.974,348.325 275.974,349.700 275.896 C 351.075 275.818,349.950 275.754,347.200 275.754 C 344.450 275.754,343.325 275.818,344.700 275.896 " stroke="none" fill="#9bb5ce" fill-rule="evenodd"></path><path id="path3" d="M70.100 124.287 C 70.705 124.378,71.695 124.378,72.300 124.287 C 72.905 124.195,72.410 124.120,71.200 124.120 C 69.990 124.120,69.495 124.195,70.100 124.287 M84.105 124.287 C 84.714 124.379,85.614 124.377,86.105 124.282 C 86.597 124.187,86.100 124.111,85.000 124.114 C 83.900 124.117,83.497 124.195,84.105 124.287 M339.705 124.287 C 340.314 124.379,341.214 124.377,341.705 124.282 C 342.197 124.187,341.700 124.111,340.600 124.114 C 339.500 124.117,339.097 124.195,339.705 124.287 M352.700 124.282 C 353.195 124.378,354.005 124.378,354.500 124.282 C 354.995 124.187,354.590 124.109,353.600 124.109 C 352.610 124.109,352.205 124.187,352.700 124.282 M331.700 125.076 C 332.085 125.176,332.715 125.176,333.100 125.076 C 333.485 124.975,333.170 124.893,332.400 124.893 C 331.630 124.893,331.315 124.975,331.700 125.076 M326.400 126.000 C 325.608 126.254,325.567 126.320,326.200 126.320 C 326.640 126.320,327.450 126.176,328.000 126.000 C 328.792 125.746,328.833 125.680,328.200 125.680 C 327.760 125.680,326.950 125.824,326.400 126.000 M364.400 126.000 C 365.768 126.438,366.819 126.438,365.800 126.000 C 365.360 125.811,364.640 125.662,364.200 125.668 C 363.557 125.677,363.596 125.743,364.400 126.000 M54.000 126.800 C 53.196 127.057,53.157 127.123,53.800 127.132 C 54.240 127.138,54.960 126.989,55.400 126.800 C 56.419 126.362,55.368 126.362,54.000 126.800 M101.000 126.800 C 101.440 126.989,102.070 127.144,102.400 127.144 C 102.778 127.144,102.704 127.017,102.200 126.800 C 101.760 126.611,101.130 126.456,100.800 126.456 C 100.422 126.456,100.496 126.583,101.000 126.800 M323.400 126.800 C 322.896 127.017,322.822 127.144,323.200 127.144 C 323.530 127.144,324.160 126.989,324.600 126.800 C 325.104 126.583,325.178 126.456,324.800 126.456 C 324.470 126.456,323.840 126.611,323.400 126.800 M367.400 126.800 C 367.840 126.989,368.470 127.144,368.800 127.144 C 369.178 127.144,369.104 127.017,368.600 126.800 C 368.160 126.611,367.530 126.456,367.200 126.456 C 366.822 126.456,366.896 126.583,367.400 126.800 M264.000 142.520 L 264.199 157.400 264.305 142.825 C 264.363 134.809,264.273 128.113,264.105 127.945 C 263.937 127.777,263.890 134.336,264.000 142.520 M166.596 200.000 C 166.596 239.490,166.643 255.645,166.700 235.900 C 166.757 216.155,166.757 183.845,166.700 164.100 C 166.643 144.355,166.596 160.510,166.596 200.000 M376.833 130.149 C 377.245 130.517,379.600 131.600,379.600 131.421 C 379.600 131.190,377.382 130.000,376.953 130.000 C 376.796 130.000,376.742 130.067,376.833 130.149 M34.481 134.972 C 32.725 136.214,32.297 136.745,33.800 135.818 C 35.878 134.535,36.591 133.999,36.189 134.020 C 35.975 134.030,35.207 134.459,34.481 134.972 M121.400 135.007 C 121.840 135.366,122.560 135.835,123.000 136.051 L 123.800 136.444 123.000 135.793 C 122.560 135.434,121.840 134.965,121.400 134.749 L 120.600 134.356 121.400 135.007 M126.400 138.133 C 126.400 138.243,127.120 138.903,128.000 139.600 C 128.880 140.297,129.600 140.777,129.600 140.667 C 129.600 140.557,128.880 139.897,128.000 139.200 C 127.120 138.503,126.400 138.023,126.400 138.133 M392.200 140.800 C 393.728 142.340,395.069 143.600,395.179 143.600 C 395.289 143.600,394.128 142.340,392.600 140.800 C 391.072 139.260,389.731 138.000,389.621 138.000 C 389.511 138.000,390.672 139.260,392.200 140.800 M130.800 141.654 C 133.491 144.337,137.975 148.344,136.400 146.659 C 135.410 145.600,133.520 143.816,132.200 142.695 C 130.880 141.574,130.250 141.105,130.800 141.654 M293.878 142.213 C 293.260 142.756,292.914 143.200,293.108 143.200 C 293.302 143.200,293.883 142.750,294.400 142.200 C 295.595 140.928,295.331 140.934,293.878 142.213 M20.591 146.100 L 17.400 149.400 20.700 146.209 C 22.515 144.455,24.000 142.970,24.000 142.909 C 24.000 142.618,23.554 143.035,20.591 146.100 M289.781 146.100 L 288.200 147.800 289.900 146.219 C 291.481 144.748,291.784 144.400,291.481 144.400 C 291.416 144.400,290.651 145.165,289.781 146.100 M14.923 152.500 C 14.141 153.361,12.390 156.015,12.877 155.600 C 13.260 155.274,16.006 151.600,15.867 151.600 C 15.797 151.600,15.372 152.005,14.923 152.500 M385.970 154.300 L 385.000 155.400 386.200 154.400 C 386.860 153.850,387.475 153.355,387.567 153.300 C 387.658 153.245,387.555 153.200,387.336 153.200 C 387.118 153.200,386.503 153.695,385.970 154.300 M75.318 154.298 C 77.033 154.373,79.733 154.372,81.318 154.297 C 82.903 154.221,81.500 154.159,78.200 154.160 C 74.900 154.161,73.603 154.222,75.318 154.298 M342.117 154.297 C 343.611 154.374,345.951 154.374,347.317 154.296 C 348.682 154.218,347.460 154.155,344.600 154.155 C 341.740 154.156,340.622 154.220,342.117 154.297 M88.000 155.200 C 89.368 155.638,90.419 155.638,89.400 155.200 C 88.960 155.011,88.240 154.862,87.800 154.868 C 87.157 154.877,87.196 154.943,88.000 155.200 M143.949 156.600 C 144.165 157.040,144.634 157.760,144.993 158.200 L 145.644 159.000 145.251 158.200 C 145.035 157.760,144.566 157.040,144.207 156.600 L 143.556 155.800 143.949 156.600 M95.158 157.237 C 96.125 157.666,96.988 157.945,97.075 157.858 C 97.248 157.686,94.165 156.382,93.692 156.428 C 93.531 156.444,94.191 156.808,95.158 157.237 M328.000 157.400 C 327.450 157.714,327.180 157.972,327.400 157.972 C 327.620 157.972,328.250 157.714,328.800 157.400 C 329.350 157.086,329.620 156.828,329.400 156.828 C 329.180 156.828,328.550 157.086,328.000 157.400 M199.295 171.900 L 199.400 186.200 229.300 186.204 L 259.200 186.208 229.400 186.101 L 199.600 185.995 199.600 172.000 L 199.600 158.005 231.900 157.900 L 264.200 157.795 231.695 157.698 L 199.190 157.600 199.295 171.900 M10.214 159.435 C 9.841 160.004,9.605 160.538,9.689 160.622 C 9.773 160.707,10.158 160.241,10.544 159.588 C 11.406 158.128,11.148 158.009,10.214 159.435 M278.400 161.600 C 277.951 162.480,277.674 163.200,277.784 163.200 C 277.894 163.200,278.351 162.480,278.800 161.600 C 279.249 160.720,279.526 160.000,279.416 160.000 C 279.306 160.000,278.849 160.720,278.400 161.600 M376.400 162.054 L 374.600 163.685 376.294 162.413 C 377.768 161.307,378.714 160.374,378.324 160.412 C 378.256 160.419,377.390 161.158,376.400 162.054 M102.800 160.911 C 102.800 160.987,103.385 161.478,104.100 162.001 C 104.904 162.590,105.184 162.687,104.833 162.255 C 104.300 161.599,102.800 160.607,102.800 160.911 M49.551 163.631 L 47.800 165.262 49.700 163.746 C 50.745 162.913,51.600 162.179,51.600 162.115 C 51.600 161.807,51.163 162.130,49.551 163.631 M316.187 165.700 L 313.800 168.200 316.300 165.813 C 317.675 164.499,318.800 163.374,318.800 163.313 C 318.800 163.017,318.405 163.378,316.187 165.700 M109.200 166.200 C 110.617 167.630,111.867 168.800,111.977 168.800 C 112.087 168.800,111.017 167.630,109.600 166.200 C 108.183 164.770,106.933 163.600,106.823 163.600 C 106.713 163.600,107.783 164.770,109.200 166.200 M373.000 164.800 C 372.112 165.781,371.699 165.799,370.631 164.900 C 369.801 164.201,369.801 164.201,370.562 165.100 C 371.538 166.252,372.041 166.233,373.200 165.000 C 373.717 164.450,374.046 164.000,373.932 164.000 C 373.817 164.000,373.398 164.360,373.000 164.800 M5.853 168.135 C 5.125 169.878,4.644 171.453,4.917 171.200 C 5.249 170.893,6.814 166.800,6.600 166.800 C 6.496 166.800,6.160 167.401,5.853 168.135 M274.996 168.672 C 274.658 169.481,274.433 170.300,274.497 170.491 C 274.561 170.682,274.916 170.020,275.287 169.019 C 276.093 166.845,275.870 166.579,274.996 168.672 M313.144 169.100 C 311.993 170.489,311.506 171.200,311.704 171.200 C 311.814 171.200,312.386 170.570,312.973 169.800 C 314.063 168.371,314.195 167.832,313.144 169.100 M41.753 172.100 C 40.376 174.436,40.286 174.635,40.987 173.800 C 41.800 172.832,42.500 171.600,42.238 171.600 C 42.133 171.600,41.915 171.825,41.753 172.100 M310.253 173.300 L 309.533 174.600 310.358 173.600 C 311.089 172.713,311.414 172.000,311.086 172.000 C 311.024 172.000,310.649 172.585,310.253 173.300 M308.600 176.000 C 308.259 176.660,308.069 177.200,308.179 177.200 C 308.289 177.200,308.659 176.660,309.000 176.000 C 309.341 175.340,309.531 174.800,309.421 174.800 C 309.311 174.800,308.941 175.340,308.600 176.000 M153.044 177.000 C 153.373 178.471,153.602 178.790,153.594 177.767 C 153.591 177.345,153.405 176.730,153.182 176.400 C 152.885 175.962,152.848 176.124,153.044 177.000 M2.446 178.467 C 2.421 178.834,2.296 179.464,2.170 179.867 C 1.952 180.562,1.963 180.563,2.397 179.887 C 2.648 179.496,2.773 178.866,2.673 178.487 C 2.511 177.868,2.488 177.866,2.446 178.467 M117.634 178.200 C 117.634 178.420,117.978 179.230,118.400 180.000 C 118.822 180.770,119.166 181.220,119.166 181.000 C 119.166 180.780,118.822 179.970,118.400 179.200 C 117.978 178.430,117.634 177.980,117.634 178.200 M1.440 182.840 C 1.293 183.757,1.252 184.585,1.347 184.680 C 1.442 184.776,1.646 184.110,1.800 183.200 C 1.954 182.290,1.996 181.462,1.893 181.360 C 1.790 181.257,1.587 181.923,1.440 182.840 M36.491 182.500 C 35.810 184.384,35.904 184.894,36.626 183.230 C 36.953 182.477,37.166 181.699,37.101 181.502 C 37.035 181.305,36.760 181.754,36.491 182.500 M270.101 187.800 C 270.105 188.680,270.187 188.993,270.283 188.495 C 270.379 187.998,270.375 187.278,270.275 186.895 C 270.175 186.513,270.096 186.920,270.101 187.800 M0.509 190.000 C 0.509 190.990,0.587 191.395,0.682 190.900 C 0.778 190.405,0.778 189.595,0.682 189.100 C 0.587 188.605,0.509 189.010,0.509 190.000 M269.693 191.600 C 269.693 192.370,269.775 192.685,269.876 192.300 C 269.976 191.915,269.976 191.285,269.876 190.900 C 269.775 190.515,269.693 190.830,269.693 191.600 M155.701 193.400 C 155.705 194.280,155.787 194.593,155.883 194.095 C 155.979 193.598,155.975 192.878,155.875 192.495 C 155.775 192.113,155.696 192.520,155.701 193.400 M34.093 193.600 C 34.093 194.370,34.175 194.685,34.276 194.300 C 34.376 193.915,34.376 193.285,34.276 192.900 C 34.175 192.515,34.093 192.830,34.093 193.600 M0.109 195.200 C 0.109 196.190,0.187 196.595,0.282 196.100 C 0.378 195.605,0.378 194.795,0.282 194.300 C 0.187 193.805,0.109 194.210,0.109 195.200 M122.160 200.200 C 122.161 203.500,122.222 204.797,122.298 203.082 C 122.373 201.367,122.372 198.667,122.297 197.082 C 122.221 195.497,122.159 196.900,122.160 200.200 M156.154 200.000 C 156.154 202.750,156.218 203.875,156.296 202.500 C 156.374 201.125,156.374 198.875,156.296 197.500 C 156.218 196.125,156.154 197.250,156.154 200.000 M269.301 197.800 C 269.305 198.680,269.387 198.993,269.483 198.495 C 269.579 197.998,269.575 197.278,269.475 196.895 C 269.375 196.513,269.296 196.920,269.301 197.800 M33.734 200.000 C 33.734 201.650,33.805 202.325,33.891 201.500 C 33.978 200.675,33.978 199.325,33.891 198.500 C 33.805 197.675,33.734 198.350,33.734 200.000 M0.109 204.800 C 0.109 205.790,0.187 206.195,0.282 205.700 C 0.378 205.205,0.378 204.395,0.282 203.900 C 0.187 203.405,0.109 203.810,0.109 204.800 M303.293 204.800 C 303.293 205.570,303.375 205.885,303.476 205.500 C 303.576 205.115,303.576 204.485,303.476 204.100 C 303.375 203.715,303.293 204.030,303.293 204.800 M34.093 206.400 C 34.093 207.170,34.175 207.485,34.276 207.100 C 34.376 206.715,34.376 206.085,34.276 205.700 C 34.175 205.315,34.093 205.630,34.093 206.400 M155.693 206.400 C 155.693 207.170,155.775 207.485,155.876 207.100 C 155.976 206.715,155.976 206.085,155.876 205.700 C 155.775 205.315,155.693 205.630,155.693 206.400 M269.693 208.400 C 269.693 209.170,269.775 209.485,269.876 209.100 C 269.976 208.715,269.976 208.085,269.876 207.700 C 269.775 207.315,269.693 207.630,269.693 208.400 M303.693 208.400 C 303.693 209.170,303.775 209.485,303.876 209.100 C 303.976 208.715,303.976 208.085,303.876 207.700 C 303.775 207.315,303.693 207.630,303.693 208.400 M0.509 210.000 C 0.509 210.990,0.587 211.395,0.682 210.900 C 0.778 210.405,0.778 209.595,0.682 209.100 C 0.587 208.605,0.509 209.010,0.509 210.000 M270.101 212.200 C 270.105 213.080,270.187 213.393,270.283 212.895 C 270.379 212.398,270.375 211.678,270.275 211.295 C 270.175 210.913,270.096 211.320,270.101 212.200 M1.462 217.000 C 1.596 217.880,1.772 218.675,1.853 218.767 C 2.156 219.110,1.929 216.968,1.581 216.200 C 1.329 215.642,1.293 215.885,1.462 217.000 M36.045 216.000 C 36.053 216.330,36.406 217.320,36.829 218.200 C 37.252 219.080,37.486 219.362,37.349 218.826 C 36.973 217.361,36.029 215.314,36.045 216.000 M270.893 216.800 C 270.893 217.570,270.975 217.885,271.076 217.500 C 271.176 217.115,271.176 216.485,271.076 216.100 C 270.975 215.715,270.893 216.030,270.893 216.800 M199.200 244.480 C 199.090 259.814,199.136 272.224,199.303 272.057 C 199.469 271.891,199.559 259.345,199.503 244.177 L 199.400 216.600 199.200 244.480 M118.272 220.219 C 117.332 222.189,117.464 222.524,118.447 220.662 C 118.893 219.816,119.187 219.054,119.101 218.967 C 119.014 218.881,118.641 219.444,118.272 220.219 M2.262 220.800 C 2.398 221.570,2.662 222.470,2.848 222.800 C 3.052 223.161,3.088 222.843,2.938 222.000 C 2.802 221.230,2.538 220.330,2.352 220.000 C 2.148 219.639,2.112 219.957,2.262 220.800 M309.000 224.800 C 309.557 225.900,310.103 226.800,310.213 226.800 C 310.323 226.800,309.957 225.900,309.400 224.800 C 308.843 223.700,308.297 222.800,308.187 222.800 C 308.077 222.800,308.443 223.700,309.000 224.800 M114.000 228.000 C 113.530 228.660,113.236 229.200,113.346 229.200 C 113.456 229.200,113.930 228.660,114.400 228.000 C 114.870 227.340,115.164 226.800,115.054 226.800 C 114.944 226.800,114.470 227.340,114.000 228.000 M274.229 229.200 C 274.376 229.750,274.664 230.470,274.867 230.800 C 275.125 231.217,275.157 231.095,274.971 230.400 C 274.824 229.850,274.536 229.130,274.333 228.800 C 274.075 228.383,274.043 228.505,274.229 229.200 M43.130 229.900 C 43.561 230.505,44.328 231.360,44.834 231.800 C 45.340 232.240,45.051 231.745,44.192 230.700 C 42.473 228.608,41.903 228.179,43.130 229.900 M5.350 230.400 C 5.701 231.699,6.909 234.424,7.065 234.268 C 7.156 234.178,6.770 233.135,6.209 231.952 C 5.647 230.768,5.261 230.070,5.350 230.400 M109.188 233.900 L 106.600 236.600 109.300 234.012 C 111.808 231.607,112.183 231.200,111.888 231.200 C 111.827 231.200,110.612 232.415,109.188 233.900 M368.185 236.100 L 366.200 238.200 368.300 236.215 C 370.251 234.371,370.583 234.000,370.285 234.000 C 370.222 234.000,369.277 234.945,368.185 236.100 M48.600 235.566 C 49.378 236.461,51.600 238.198,51.600 237.912 C 51.600 237.834,50.745 237.067,49.700 236.208 C 48.655 235.349,48.160 235.060,48.600 235.566 M104.020 238.031 C 101.410 239.941,100.980 240.366,102.600 239.434 C 103.840 238.722,106.754 236.416,106.400 236.429 C 106.290 236.432,105.219 237.153,104.020 238.031 M382.544 237.509 C 382.860 238.021,385.200 239.753,385.200 239.475 C 385.200 239.376,384.539 238.791,383.732 238.175 C 382.924 237.559,382.389 237.259,382.544 237.509 M146.400 239.200 C 145.951 240.080,145.674 240.800,145.784 240.800 C 145.894 240.800,146.351 240.080,146.800 239.200 C 147.249 238.320,147.526 237.600,147.416 237.600 C 147.306 237.600,146.849 238.320,146.400 239.200 M360.600 241.600 C 359.940 242.037,359.580 242.392,359.800 242.388 C 360.201 242.382,362.376 240.823,362.000 240.812 C 361.890 240.808,361.260 241.163,360.600 241.600 M57.254 241.387 C 57.590 241.723,60.400 242.816,60.400 242.611 C 60.400 242.501,59.748 242.138,58.951 241.805 C 57.475 241.189,56.918 241.051,57.254 241.387 M142.423 245.500 C 141.691 246.545,141.431 247.097,141.846 246.727 C 142.571 246.080,144.199 243.600,143.900 243.600 C 143.820 243.600,143.155 244.455,142.423 245.500 M66.600 244.800 C 67.040 244.989,67.760 245.138,68.200 245.132 C 68.843 245.123,68.804 245.057,68.000 244.800 C 66.632 244.362,65.581 244.362,66.600 244.800 M75.318 245.898 C 77.033 245.973,79.733 245.972,81.318 245.897 C 82.903 245.821,81.500 245.759,78.200 245.760 C 74.900 245.761,73.603 245.822,75.318 245.898 M340.917 245.897 C 342.411 245.974,344.751 245.974,346.117 245.896 C 347.482 245.818,346.260 245.755,343.400 245.755 C 340.540 245.756,339.422 245.820,340.917 245.897 M139.355 249.481 C 138.507 250.516,138.022 251.234,138.277 251.076 C 138.821 250.740,141.355 247.600,141.082 247.600 C 140.980 247.600,140.203 248.447,139.355 249.481 M398.753 249.670 C 399.315 250.316,399.565 250.951,399.383 251.270 C 399.140 251.699,399.186 251.704,399.627 251.295 C 400.080 250.873,399.975 250.607,398.997 249.695 L 397.823 248.600 398.753 249.670 M21.000 254.400 C 23.192 256.600,25.075 258.400,25.185 258.400 C 25.295 258.400,23.592 256.600,21.400 254.400 C 19.208 252.200,17.325 250.400,17.215 250.400 C 17.105 250.400,18.808 252.200,21.000 254.400 M289.800 254.000 C 290.659 254.880,291.452 255.600,291.562 255.600 C 291.672 255.600,291.059 254.880,290.200 254.000 C 289.341 253.120,288.548 252.400,288.438 252.400 C 288.328 252.400,288.941 253.120,289.800 254.000 M131.178 257.900 L 129.800 259.400 131.300 258.022 C 132.696 256.738,132.984 256.400,132.678 256.400 C 132.612 256.400,131.937 257.075,131.178 257.900 M393.775 258.100 L 392.600 259.400 393.900 258.225 C 394.615 257.579,395.200 256.994,395.200 256.925 C 395.200 256.616,394.870 256.888,393.775 258.100 M28.073 260.626 C 28.443 261.052,29.343 261.741,30.073 262.157 C 31.639 263.050,31.226 262.607,29.000 261.004 C 28.069 260.334,27.682 260.176,28.073 260.626 M126.600 261.460 C 125.395 262.536,125.305 262.685,126.236 262.063 C 127.341 261.324,128.732 259.976,128.349 260.015 C 128.267 260.023,127.480 260.673,126.600 261.460 M34.600 265.006 C 35.495 265.741,38.827 267.503,38.200 266.910 C 37.980 266.702,36.900 266.041,35.800 265.441 C 34.700 264.841,34.160 264.645,34.600 265.006 M39.200 267.409 C 39.200 267.618,41.989 269.064,43.505 269.640 C 44.098 269.865,44.468 269.935,44.327 269.794 C 43.946 269.413,39.200 267.205,39.200 267.409 M101.000 273.200 C 100.496 273.417,100.422 273.544,100.800 273.544 C 101.130 273.544,101.760 273.389,102.200 273.200 C 102.704 272.983,102.778 272.856,102.400 272.856 C 102.070 272.856,101.440 273.011,101.000 273.200 M323.200 273.200 C 324.568 273.638,325.619 273.638,324.600 273.200 C 324.160 273.011,323.440 272.862,323.000 272.868 C 322.357 272.877,322.396 272.943,323.200 273.200 M367.400 273.200 C 366.896 273.417,366.822 273.544,367.200 273.544 C 367.530 273.544,368.160 273.389,368.600 273.200 C 369.104 272.983,369.178 272.856,368.800 272.856 C 368.470 272.856,367.840 273.011,367.400 273.200 M326.400 274.000 C 327.768 274.438,328.819 274.438,327.800 274.000 C 327.360 273.811,326.640 273.662,326.200 273.668 C 325.557 273.677,325.596 273.743,326.400 274.000 M70.505 275.887 C 71.114 275.979,72.014 275.977,72.505 275.882 C 72.997 275.787,72.500 275.711,71.400 275.714 C 70.300 275.717,69.897 275.795,70.505 275.887 M83.900 275.882 C 84.395 275.978,85.205 275.978,85.700 275.882 C 86.195 275.787,85.790 275.709,84.800 275.709 C 83.810 275.709,83.405 275.787,83.900 275.882 M338.700 275.889 C 339.415 275.978,340.585 275.978,341.300 275.889 C 342.015 275.801,341.430 275.728,340.000 275.728 C 338.570 275.728,337.985 275.801,338.700 275.889 M352.705 275.883 C 353.202 275.979,353.922 275.975,354.305 275.875 C 354.687 275.775,354.280 275.696,353.400 275.701 C 352.520 275.705,352.207 275.787,352.705 275.883 " stroke="none" fill="#c9ddf0" fill-rule="evenodd"></path><path id="path4" d="M69.500 124.689 C 70.215 124.778,71.385 124.778,72.100 124.689 C 72.815 124.601,72.230 124.528,70.800 124.528 C 69.370 124.528,68.785 124.601,69.500 124.689 M83.233 124.544 C 83.325 124.624,85.020 124.785,87.000 124.903 C 89.448 125.049,90.088 125.010,89.000 124.782 C 87.420 124.450,82.910 124.265,83.233 124.544 M338.700 124.689 C 339.415 124.778,340.585 124.778,341.300 124.689 C 342.015 124.601,341.430 124.528,340.000 124.528 C 338.570 124.528,337.985 124.601,338.700 124.689 M352.033 124.544 C 352.125 124.624,353.550 124.785,355.200 124.903 C 356.958 125.028,357.703 124.988,357.000 124.806 C 355.787 124.491,351.725 124.278,352.033 124.544 M66.100 125.076 C 66.485 125.176,67.115 125.176,67.500 125.076 C 67.885 124.975,67.570 124.893,66.800 124.893 C 66.030 124.893,65.715 124.975,66.100 125.076 M335.300 125.076 C 335.685 125.176,336.315 125.176,336.700 125.076 C 337.085 124.975,336.770 124.893,336.000 124.893 C 335.230 124.893,334.915 124.975,335.300 125.076 M61.600 125.600 C 60.256 126.031,61.708 126.031,63.400 125.600 C 64.478 125.326,64.498 125.294,63.600 125.287 C 63.050 125.283,62.150 125.424,61.600 125.600 M92.800 125.600 C 93.350 125.776,94.250 125.917,94.800 125.913 C 95.698 125.906,95.678 125.874,94.600 125.600 C 92.908 125.169,91.456 125.169,92.800 125.600 M331.000 125.619 C 330.442 125.871,330.685 125.907,331.800 125.738 C 332.680 125.604,333.475 125.428,333.567 125.347 C 333.910 125.044,331.768 125.271,331.000 125.619 M360.400 125.600 C 361.768 126.038,362.819 126.038,361.800 125.600 C 361.360 125.411,360.640 125.262,360.200 125.268 C 359.557 125.277,359.596 125.343,360.400 125.600 M57.600 126.400 C 56.796 126.657,56.757 126.723,57.400 126.732 C 57.840 126.738,58.560 126.589,59.000 126.400 C 60.019 125.962,58.968 125.962,57.600 126.400 M97.200 126.400 C 97.750 126.576,98.560 126.720,99.000 126.720 C 99.633 126.720,99.592 126.654,98.800 126.400 C 98.250 126.224,97.440 126.080,97.000 126.080 C 96.367 126.080,96.408 126.146,97.200 126.400 M364.200 126.400 C 364.640 126.589,365.270 126.744,365.600 126.744 C 365.978 126.744,365.904 126.617,365.400 126.400 C 364.960 126.211,364.330 126.056,364.000 126.056 C 363.622 126.056,363.696 126.183,364.200 126.400 M100.600 127.200 C 101.040 127.389,101.760 127.538,102.200 127.532 C 102.843 127.523,102.804 127.457,102.000 127.200 C 100.632 126.762,99.581 126.762,100.600 127.200 M323.600 127.200 C 322.796 127.457,322.757 127.523,323.400 127.532 C 323.840 127.538,324.560 127.389,325.000 127.200 C 326.019 126.762,324.968 126.762,323.600 127.200 M263.695 142.500 L 263.600 157.200 231.200 157.200 C 213.380 157.200,198.800 157.335,198.800 157.500 C 198.800 158.059,263.604 157.654,263.820 157.093 C 263.924 156.820,263.961 150.117,263.900 142.198 L 263.790 127.800 263.695 142.500 M109.233 129.752 C 109.604 130.089,115.359 132.374,115.495 132.238 C 115.576 132.158,114.295 131.531,112.649 130.846 C 109.923 129.711,108.790 129.348,109.233 129.752 M314.200 130.378 C 313.320 130.795,312.780 131.136,313.000 131.138 C 313.546 131.142,316.702 129.664,316.200 129.640 C 315.980 129.630,315.080 129.962,314.200 130.378 M380.800 132.543 C 380.800 132.635,382.015 133.455,383.500 134.364 C 384.985 135.273,385.707 135.608,385.105 135.109 C 383.929 134.132,380.800 132.268,380.800 132.543 M306.700 133.829 C 305.205 134.640,305.296 134.978,306.800 134.200 C 307.460 133.859,308.000 133.494,308.000 133.390 C 308.000 133.132,307.957 133.147,306.700 133.829 M300.895 137.411 C 299.743 138.186,298.800 138.908,298.800 139.015 C 298.800 139.121,299.790 138.551,301.000 137.747 C 302.922 136.471,303.487 136.000,303.095 136.000 C 303.037 136.000,302.047 136.635,300.895 137.411 M391.700 140.880 C 395.642 144.801,396.003 145.388,395.100 146.401 C 394.675 146.878,394.704 146.882,395.300 146.432 C 396.561 145.478,394.318 142.311,389.741 138.582 C 388.673 137.712,389.555 138.746,391.700 140.880 M128.400 140.114 C 128.400 140.218,129.428 141.180,130.684 142.251 C 131.940 143.323,132.839 143.991,132.683 143.736 C 132.339 143.177,128.400 139.846,128.400 140.114 M24.975 142.500 L 23.800 143.800 25.100 142.625 C 25.815 141.979,26.400 141.394,26.400 141.325 C 26.400 141.016,26.070 141.288,24.975 142.500 M292.981 143.700 L 291.400 145.400 293.100 143.819 C 294.681 142.348,294.984 142.000,294.681 142.000 C 294.616 142.000,293.851 142.765,292.981 143.700 M20.985 146.100 L 19.000 148.200 21.100 146.215 C 22.255 145.123,23.200 144.178,23.200 144.115 C 23.200 143.817,22.829 144.149,20.985 146.100 M288.181 148.500 L 286.600 150.200 288.300 148.619 C 289.881 147.148,290.184 146.800,289.881 146.800 C 289.816 146.800,289.051 147.565,288.181 148.500 M138.000 149.400 C 138.746 150.170,139.447 150.800,139.557 150.800 C 139.667 150.800,139.146 150.170,138.400 149.400 C 137.654 148.630,136.953 148.000,136.843 148.000 C 136.733 148.000,137.254 148.630,138.000 149.400 M17.563 149.900 C 15.850 151.811,15.069 152.800,15.275 152.800 C 15.385 152.800,16.234 151.900,17.161 150.800 C 18.945 148.685,19.235 148.036,17.563 149.900 M285.751 151.300 C 284.570 152.648,283.880 153.600,284.084 153.600 C 284.184 153.600,284.845 152.880,285.552 152.000 C 286.925 150.292,287.064 149.801,285.751 151.300 M13.919 154.500 C 12.757 156.048,12.296 156.800,12.509 156.800 C 12.594 156.800,13.246 155.990,13.957 155.000 C 15.432 152.946,15.400 152.527,13.919 154.500 M75.318 153.898 C 77.033 153.973,79.733 153.972,81.318 153.897 C 82.903 153.821,81.500 153.759,78.200 153.760 C 74.900 153.761,73.603 153.822,75.318 153.898 M341.700 153.897 C 343.185 153.974,345.615 153.974,347.100 153.897 C 348.585 153.820,347.370 153.757,344.400 153.757 C 341.430 153.757,340.215 153.820,341.700 153.897 M85.800 154.400 C 86.460 154.568,87.450 154.705,88.000 154.705 C 88.892 154.705,88.870 154.672,87.800 154.400 C 87.140 154.232,86.150 154.095,85.600 154.095 C 84.708 154.095,84.730 154.128,85.800 154.400 M335.600 154.400 C 334.256 154.831,335.708 154.831,337.400 154.400 C 338.478 154.126,338.498 154.094,337.600 154.087 C 337.050 154.083,336.150 154.224,335.600 154.400 M63.600 155.618 C 63.162 155.915,63.324 155.952,64.200 155.756 C 65.671 155.427,65.990 155.198,64.967 155.206 C 64.545 155.209,63.930 155.395,63.600 155.618 M381.200 157.634 L 379.400 159.265 381.300 157.784 C 382.966 156.486,383.459 155.997,383.100 156.001 C 383.045 156.002,382.190 156.736,381.200 157.634 M281.353 157.300 C 279.976 159.636,279.886 159.835,280.587 159.000 C 281.400 158.032,282.100 156.800,281.838 156.800 C 281.733 156.800,281.515 157.025,281.353 157.300 M326.300 157.627 C 325.475 158.063,324.800 158.508,324.800 158.618 C 324.800 158.796,327.959 157.319,328.367 156.951 C 328.827 156.534,327.625 156.928,326.300 157.627 M96.833 157.352 C 97.241 157.724,101.200 159.593,101.200 159.413 C 101.200 159.188,97.380 157.200,96.947 157.200 C 96.793 157.200,96.742 157.268,96.833 157.352 M54.700 159.429 C 53.205 160.240,53.296 160.578,54.800 159.800 C 55.460 159.459,56.000 159.094,56.000 158.990 C 56.000 158.732,55.957 158.747,54.700 159.429 M103.600 160.946 C 103.600 161.056,104.140 161.530,104.800 162.000 C 105.460 162.470,106.000 162.764,106.000 162.654 C 106.000 162.544,105.460 162.070,104.800 161.600 C 104.140 161.130,103.600 160.836,103.600 160.946 M8.800 162.800 C 8.351 163.680,8.074 164.400,8.184 164.400 C 8.294 164.400,8.751 163.680,9.200 162.800 C 9.649 161.920,9.926 161.200,9.816 161.200 C 9.706 161.200,9.249 161.920,8.800 162.800 M369.767 163.482 C 371.470 165.284,372.400 165.788,372.400 164.910 C 372.400 164.776,372.276 164.791,372.124 164.943 C 371.972 165.095,370.937 164.360,369.824 163.310 L 367.800 161.400 369.767 163.482 M316.166 165.300 C 314.398 167.115,312.700 168.960,312.394 169.400 C 311.751 170.326,311.575 170.498,316.188 165.700 C 318.144 163.665,319.663 162.000,319.564 162.000 C 319.464 162.000,317.935 163.485,316.166 165.300 M109.617 166.200 C 111.486 168.180,113.519 170.430,114.134 171.200 C 115.098 172.407,115.082 172.350,114.016 170.781 C 113.337 169.781,111.304 167.531,109.500 165.781 L 106.218 162.600 109.617 166.200 M277.381 164.437 C 277.029 165.118,276.812 165.745,276.899 165.832 C 276.986 165.919,277.356 165.362,277.722 164.595 C 278.544 162.870,278.259 162.738,277.381 164.437 M46.175 166.100 L 45.000 167.400 46.300 166.225 C 47.512 165.130,47.784 164.800,47.475 164.800 C 47.406 164.800,46.821 165.385,46.175 166.100 M43.144 169.500 C 41.993 170.889,41.506 171.600,41.704 171.600 C 41.814 171.600,42.386 170.970,42.973 170.200 C 44.063 168.771,44.195 168.232,43.144 169.500 M2.650 179.650 C 2.317 181.317,2.640 181.640,3.000 180.000 C 3.152 179.309,3.193 178.659,3.091 178.558 C 2.989 178.456,2.791 178.947,2.650 179.650 M36.996 179.872 C 36.658 180.681,36.433 181.500,36.497 181.691 C 36.561 181.882,36.916 181.220,37.287 180.219 C 38.093 178.045,37.870 177.779,36.996 179.872 M153.268 179.600 C 153.288 180.639,153.918 182.346,153.932 181.400 C 153.938 180.960,153.789 180.240,153.600 179.800 C 153.389 179.310,153.261 179.232,153.268 179.600 M1.818 183.418 C 1.665 184.439,1.622 185.355,1.722 185.455 C 1.822 185.555,2.029 184.802,2.182 183.782 C 2.335 182.761,2.378 181.845,2.278 181.745 C 2.178 181.645,1.971 182.398,1.818 183.418 M119.995 183.181 C 120.204 183.911,120.486 184.619,120.620 184.754 C 120.996 185.129,120.344 182.652,119.955 182.227 C 119.768 182.022,119.785 182.451,119.995 183.181 M154.272 184.600 C 154.399 185.700,154.569 186.675,154.651 186.767 C 154.932 187.082,154.720 184.599,154.380 183.600 C 154.151 182.926,154.116 183.251,154.272 184.600 M1.293 187.200 C 1.293 187.970,1.375 188.285,1.476 187.900 C 1.576 187.515,1.576 186.885,1.476 186.500 C 1.375 186.115,1.293 186.430,1.293 187.200 M199.062 186.500 C 199.164 186.665,212.647 186.800,229.024 186.800 L 258.800 186.800 258.800 201.197 L 258.800 215.595 229.000 215.701 L 199.200 215.808 229.100 215.804 L 259.000 215.800 259.000 201.200 L 259.000 186.600 228.938 186.400 C 212.404 186.290,198.960 186.335,199.062 186.500 M303.850 188.050 C 303.517 189.717,303.840 190.040,304.200 188.400 C 304.352 187.709,304.393 187.059,304.291 186.958 C 304.189 186.856,303.991 187.347,303.850 188.050 M270.225 190.425 C 270.070 191.994,270.027 193.361,270.129 193.462 C 270.231 193.564,270.443 192.366,270.600 190.800 C 270.757 189.234,270.800 187.867,270.696 187.763 C 270.592 187.658,270.380 188.856,270.225 190.425 M0.893 190.000 C 0.893 190.770,0.975 191.085,1.076 190.700 C 1.176 190.315,1.176 189.685,1.076 189.300 C 0.975 188.915,0.893 189.230,0.893 190.000 M155.328 192.800 C 155.328 194.230,155.401 194.815,155.489 194.100 C 155.578 193.385,155.578 192.215,155.489 191.500 C 155.401 190.785,155.328 191.370,155.328 192.800 M33.709 193.200 C 33.709 194.190,33.787 194.595,33.882 194.100 C 33.978 193.605,33.978 192.795,33.882 192.300 C 33.787 191.805,33.709 192.210,33.709 193.200 M302.909 194.800 C 302.909 195.790,302.987 196.195,303.082 195.700 C 303.178 195.205,303.178 194.395,303.082 193.900 C 302.987 193.405,302.909 193.810,302.909 194.800 M122.493 195.200 C 122.493 195.970,122.575 196.285,122.676 195.900 C 122.776 195.515,122.776 194.885,122.676 194.500 C 122.575 194.115,122.493 194.430,122.493 195.200 M0.558 200.600 C 0.558 203.680,0.621 204.887,0.697 203.282 C 0.773 201.678,0.773 199.158,0.696 197.682 C 0.619 196.207,0.557 197.520,0.558 200.600 M155.751 200.000 C 155.751 202.530,155.816 203.565,155.896 202.300 C 155.975 201.035,155.975 198.965,155.896 197.700 C 155.816 196.435,155.751 197.470,155.751 200.000 M269.744 200.000 C 269.744 202.090,269.812 202.945,269.894 201.900 C 269.976 200.855,269.976 199.145,269.894 198.100 C 269.812 197.055,269.744 197.910,269.744 200.000 M33.340 200.000 C 33.340 201.870,33.409 202.635,33.493 201.700 C 33.577 200.765,33.577 199.235,33.493 198.300 C 33.409 197.365,33.340 198.130,33.340 200.000 M122.501 205.000 C 122.505 205.880,122.587 206.193,122.683 205.695 C 122.779 205.198,122.775 204.478,122.675 204.095 C 122.575 203.713,122.496 204.120,122.501 205.000 M302.909 205.200 C 302.909 206.190,302.987 206.595,303.082 206.100 C 303.178 205.605,303.178 204.795,303.082 204.300 C 302.987 203.805,302.909 204.210,302.909 205.200 M155.328 207.200 C 155.328 208.630,155.401 209.215,155.489 208.500 C 155.578 207.785,155.578 206.615,155.489 205.900 C 155.401 205.185,155.328 205.770,155.328 207.200 M33.709 206.800 C 33.709 207.790,33.787 208.195,33.882 207.700 C 33.978 207.205,33.978 206.395,33.882 205.900 C 33.787 205.405,33.709 205.810,33.709 206.800 M270.085 207.400 C 270.077 208.060,270.210 209.500,270.382 210.600 C 270.636 212.235,270.697 212.345,270.717 211.200 C 270.730 210.430,270.597 208.990,270.420 208.000 C 270.188 206.691,270.096 206.528,270.085 207.400 M0.893 210.000 C 0.893 210.770,0.975 211.085,1.076 210.700 C 1.176 210.315,1.176 209.685,1.076 209.300 C 0.975 208.915,0.893 209.230,0.893 210.000 M303.680 210.600 C 303.680 211.040,303.824 211.850,304.000 212.400 C 304.254 213.192,304.320 213.233,304.320 212.600 C 304.320 212.160,304.176 211.350,304.000 210.800 C 303.746 210.008,303.680 209.967,303.680 210.600 M1.301 213.000 C 1.305 213.880,1.387 214.193,1.483 213.695 C 1.579 213.198,1.575 212.478,1.475 212.095 C 1.375 211.713,1.296 212.120,1.301 213.000 M154.255 215.055 C 154.113 216.086,154.074 217.008,154.169 217.102 C 154.263 217.196,154.465 216.439,154.618 215.418 C 154.771 214.398,154.810 213.476,154.704 213.371 C 154.598 213.265,154.396 214.023,154.255 215.055 M1.687 215.400 C 1.691 215.840,1.832 216.740,2.000 217.400 C 2.274 218.478,2.306 218.498,2.313 217.600 C 2.317 217.050,2.176 216.150,2.000 215.600 C 1.749 214.816,1.681 214.773,1.687 215.400 M37.018 220.100 C 37.168 220.595,37.455 221.176,37.656 221.391 C 37.857 221.606,37.819 221.201,37.572 220.491 C 37.065 219.038,36.597 218.708,37.018 220.100 M272.056 220.400 C 272.056 220.730,272.211 221.360,272.400 221.800 C 272.617 222.304,272.744 222.378,272.744 222.000 C 272.744 221.670,272.589 221.040,272.400 220.600 C 272.183 220.096,272.056 220.022,272.056 220.400 M117.681 222.609 C 117.202 223.594,116.894 224.400,116.997 224.400 C 117.268 224.400,118.884 221.151,118.703 220.970 C 118.619 220.886,118.159 221.624,117.681 222.609 M39.949 225.800 C 40.165 226.240,40.634 226.960,40.993 227.400 L 41.644 228.200 41.251 227.400 C 41.035 226.960,40.566 226.240,40.207 225.800 L 39.556 225.000 39.949 225.800 M42.391 229.588 C 42.857 230.241,43.442 230.902,43.691 231.056 C 43.941 231.211,43.641 230.676,43.025 229.868 C 41.688 228.115,41.184 227.892,42.391 229.588 M109.361 233.834 C 106.920 236.327,105.390 238.028,105.961 237.613 C 107.531 236.473,114.659 229.011,113.949 229.250 C 113.867 229.278,111.802 231.341,109.361 233.834 M150.044 230.444 C 149.798 231.151,149.666 231.800,149.752 231.885 C 149.838 231.971,150.109 231.462,150.356 230.756 C 150.602 230.049,150.734 229.400,150.648 229.315 C 150.562 229.229,150.291 229.738,150.044 230.444 M312.043 230.400 C 312.544 231.170,314.404 233.250,316.177 235.023 C 317.950 236.796,320.030 238.656,320.800 239.157 C 322.076 239.988,322.059 239.953,320.600 238.755 C 318.543 237.066,314.134 232.657,312.445 230.600 C 311.247 229.141,311.212 229.124,312.043 230.400 M46.383 234.100 C 47.364 235.145,48.219 236.000,48.283 236.000 C 48.584 236.000,48.266 235.641,46.500 233.983 L 44.600 232.200 46.383 234.100 M375.200 232.546 C 375.200 232.656,375.740 233.130,376.400 233.600 C 377.060 234.070,377.600 234.364,377.600 234.254 C 377.600 234.144,377.060 233.670,376.400 233.200 C 375.740 232.730,375.200 232.436,375.200 232.546 M276.434 233.400 C 276.434 233.620,276.778 234.430,277.200 235.200 C 277.622 235.970,277.966 236.420,277.966 236.200 C 277.966 235.980,277.622 235.170,277.200 234.400 C 276.778 233.630,276.434 233.180,276.434 233.400 M368.400 236.200 C 366.761 237.850,365.510 239.200,365.620 239.200 C 365.730 239.200,367.161 237.850,368.800 236.200 C 370.439 234.550,371.690 233.200,371.580 233.200 C 371.470 233.200,370.039 234.550,368.400 236.200 M8.800 237.200 C 9.249 238.080,9.706 238.800,9.816 238.800 C 9.926 238.800,9.649 238.080,9.200 237.200 C 8.751 236.320,8.294 235.600,8.184 235.600 C 8.074 235.600,8.351 236.320,8.800 237.200 M49.164 236.535 C 49.749 237.263,52.000 238.977,52.000 238.694 C 52.000 238.606,51.235 237.926,50.300 237.183 C 49.365 236.440,48.854 236.148,49.164 236.535 M146.600 238.000 C 146.259 238.660,146.069 239.200,146.179 239.200 C 146.289 239.200,146.659 238.660,147.000 238.000 C 147.341 237.340,147.531 236.800,147.421 236.800 C 147.311 236.800,146.941 237.340,146.600 238.000 M278.800 238.400 C 279.249 239.280,279.706 240.000,279.816 240.000 C 279.926 240.000,279.649 239.280,279.200 238.400 C 278.751 237.520,278.294 236.800,278.184 236.800 C 278.074 236.800,278.351 237.520,278.800 238.400 M53.600 239.779 C 53.600 239.889,54.140 240.259,54.800 240.600 C 55.460 240.941,56.000 241.131,56.000 241.021 C 56.000 240.911,55.460 240.541,54.800 240.200 C 54.140 239.859,53.600 239.669,53.600 239.779 M145.000 240.800 C 144.659 241.460,144.469 242.000,144.579 242.000 C 144.689 242.000,145.059 241.460,145.400 240.800 C 145.741 240.140,145.931 239.600,145.821 239.600 C 145.711 239.600,145.341 240.140,145.000 240.800 M99.500 241.227 C 98.675 241.663,98.000 242.108,98.000 242.218 C 98.000 242.327,98.720 242.049,99.600 241.600 C 100.480 241.151,101.200 240.697,101.200 240.592 C 101.200 240.330,101.197 240.331,99.500 241.227 M280.349 241.000 C 280.565 241.440,281.034 242.160,281.393 242.600 L 282.044 243.400 281.651 242.600 C 281.435 242.160,280.966 241.440,280.607 241.000 L 279.956 240.200 280.349 241.000 M361.000 241.821 C 359.680 242.574,358.780 243.191,359.000 243.191 C 359.481 243.193,363.600 240.865,363.600 240.592 C 363.600 240.329,363.689 240.287,361.000 241.821 M386.000 240.527 C 386.000 240.624,387.035 241.481,388.300 242.430 C 389.565 243.379,390.383 243.887,390.118 243.559 C 389.575 242.885,386.000 240.254,386.000 240.527 M12.277 243.231 C 12.675 243.908,13.256 244.673,13.568 244.931 C 13.880 245.189,13.632 244.635,13.015 243.700 C 11.720 241.737,11.209 241.412,12.277 243.231 M142.400 244.800 C 141.930 245.460,141.636 246.000,141.746 246.000 C 141.856 246.000,142.330 245.460,142.800 244.800 C 143.270 244.140,143.564 243.600,143.454 243.600 C 143.344 243.600,142.870 244.140,142.400 244.800 M88.200 245.200 C 87.111 245.477,87.093 245.507,88.000 245.525 C 88.550 245.535,89.360 245.389,89.800 245.200 C 90.786 244.776,89.866 244.776,88.200 245.200 M351.400 245.416 L 349.400 245.956 351.200 245.733 C 352.190 245.610,353.270 245.356,353.600 245.167 C 354.414 244.702,353.782 244.774,351.400 245.416 M392.144 245.109 C 392.460 245.621,394.800 247.353,394.800 247.075 C 394.800 246.976,394.139 246.391,393.332 245.775 C 392.524 245.159,391.989 244.859,392.144 245.109 M68.200 245.600 C 68.860 245.768,69.850 245.905,70.400 245.905 C 71.292 245.905,71.270 245.872,70.200 245.600 C 69.540 245.432,68.550 245.295,68.000 245.295 C 67.108 245.295,67.130 245.328,68.200 245.600 M334.800 245.600 C 335.350 245.776,336.250 245.917,336.800 245.913 C 337.698 245.906,337.678 245.874,336.600 245.600 C 334.908 245.169,333.456 245.169,334.800 245.600 M74.900 246.297 C 76.605 246.372,79.395 246.372,81.100 246.297 C 82.805 246.222,81.410 246.161,78.000 246.161 C 74.590 246.161,73.195 246.222,74.900 246.297 M340.482 246.296 C 341.958 246.373,344.478 246.373,346.082 246.297 C 347.687 246.221,346.480 246.158,343.400 246.158 C 340.320 246.157,339.007 246.219,340.482 246.296 M137.700 250.775 C 136.325 252.296,135.200 253.634,135.200 253.747 C 135.200 253.944,138.202 250.758,139.766 248.900 C 141.435 246.918,140.047 248.177,137.700 250.775 M397.167 248.945 C 397.700 249.601,399.200 250.593,399.200 250.289 C 399.200 250.213,398.615 249.722,397.900 249.199 C 397.096 248.610,396.816 248.513,397.167 248.945 M286.400 249.725 C 286.400 249.794,286.985 250.379,287.700 251.025 L 289.000 252.200 287.825 250.900 C 286.730 249.688,286.400 249.416,286.400 249.725 M21.000 254.000 C 22.528 255.540,23.869 256.800,23.979 256.800 C 24.089 256.800,22.928 255.540,21.400 254.000 C 19.872 252.460,18.531 251.200,18.421 251.200 C 18.311 251.200,19.472 252.460,21.000 254.000 M396.368 254.500 C 395.184 255.875,394.532 256.748,394.920 256.441 C 395.734 255.794,398.962 252.000,398.697 252.000 C 398.600 252.000,397.551 253.125,396.368 254.500 M290.383 254.100 C 291.364 255.145,292.219 256.000,292.283 256.000 C 292.584 256.000,292.266 255.641,290.500 253.983 L 288.600 252.200 290.383 254.100 M132.400 256.200 C 131.428 257.190,130.723 258.000,130.833 258.000 C 130.943 258.000,131.828 257.190,132.800 256.200 C 133.772 255.210,134.477 254.400,134.367 254.400 C 134.257 254.400,133.372 255.210,132.400 256.200 M292.800 256.125 C 292.800 256.194,293.385 256.779,294.100 257.425 L 295.400 258.600 294.225 257.300 C 293.130 256.088,292.800 255.816,292.800 256.125 M24.762 257.326 C 25.382 258.104,28.400 260.568,28.400 260.296 C 28.400 260.202,27.455 259.337,26.300 258.374 C 25.145 257.410,24.453 256.939,24.762 257.326 M390.975 260.100 L 389.800 261.400 391.100 260.225 C 391.815 259.579,392.400 258.994,392.400 258.925 C 392.400 258.616,392.070 258.888,390.975 260.100 M126.778 260.727 C 125.996 261.317,124.916 262.123,124.378 262.517 C 123.438 263.207,123.451 263.207,124.730 262.517 C 125.995 261.836,128.824 259.620,128.400 259.644 C 128.290 259.650,127.560 260.137,126.778 260.727 M297.600 260.146 C 297.600 260.256,298.140 260.730,298.800 261.200 C 299.460 261.670,300.000 261.964,300.000 261.854 C 300.000 261.744,299.460 261.270,298.800 260.800 C 298.140 260.330,297.600 260.036,297.600 260.146 M28.800 260.546 C 28.800 260.656,29.340 261.130,30.000 261.600 C 30.660 262.070,31.200 262.364,31.200 262.254 C 31.200 262.144,30.660 261.670,30.000 261.200 C 29.340 260.730,28.800 260.436,28.800 260.546 M383.300 265.646 C 381.937 266.519,381.495 267.106,382.700 266.443 C 383.618 265.939,385.056 264.827,384.800 264.819 C 384.690 264.816,384.015 265.188,383.300 265.646 M37.600 266.179 C 37.600 266.289,38.140 266.659,38.800 267.000 C 39.460 267.341,40.000 267.531,40.000 267.421 C 40.000 267.311,39.460 266.941,38.800 266.600 C 38.140 266.259,37.600 266.069,37.600 266.179 M378.300 268.427 C 377.475 268.863,376.800 269.308,376.800 269.418 C 376.800 269.596,379.959 268.119,380.367 267.751 C 380.827 267.334,379.625 267.728,378.300 268.427 M111.291 269.283 C 110.130 269.740,109.253 270.186,109.341 270.274 C 109.537 270.470,112.855 269.210,113.380 268.740 C 113.895 268.280,113.726 268.323,111.291 269.283 M322.000 272.382 C 322.330 272.605,322.945 272.791,323.367 272.794 C 324.390 272.802,324.071 272.573,322.600 272.244 C 321.724 272.048,321.562 272.085,322.000 272.382 M368.056 272.459 C 367.317 272.672,366.787 272.920,366.879 273.012 C 367.081 273.214,370.000 272.437,370.000 272.181 C 370.000 271.946,369.682 271.991,368.056 272.459 M97.400 273.600 C 96.381 274.038,97.432 274.038,98.800 273.600 C 99.604 273.343,99.643 273.277,99.000 273.268 C 98.560 273.262,97.840 273.411,97.400 273.600 M326.800 273.600 C 328.168 274.038,329.219 274.038,328.200 273.600 C 327.760 273.411,327.040 273.262,326.600 273.268 C 325.957 273.277,325.996 273.343,326.800 273.600 M364.200 273.600 C 363.181 274.038,364.232 274.038,365.600 273.600 C 366.404 273.343,366.443 273.277,365.800 273.268 C 365.360 273.262,364.640 273.411,364.200 273.600 M61.400 274.400 C 63.092 274.831,64.544 274.831,63.200 274.400 C 62.650 274.224,61.750 274.083,61.200 274.087 C 60.302 274.094,60.322 274.126,61.400 274.400 M93.000 274.419 C 92.442 274.671,92.685 274.707,93.800 274.538 C 94.680 274.404,95.475 274.228,95.567 274.147 C 95.910 273.844,93.768 274.071,93.000 274.419 M330.600 274.400 C 332.292 274.831,333.744 274.831,332.400 274.400 C 331.850 274.224,330.950 274.083,330.400 274.087 C 329.502 274.094,329.522 274.126,330.600 274.400 M360.400 274.400 C 359.608 274.654,359.567 274.720,360.200 274.720 C 360.640 274.720,361.450 274.576,362.000 274.400 C 362.792 274.146,362.833 274.080,362.200 274.080 C 361.760 274.080,360.950 274.224,360.400 274.400 M66.100 275.076 C 66.485 275.176,67.115 275.176,67.500 275.076 C 67.885 274.975,67.570 274.893,66.800 274.893 C 66.030 274.893,65.715 274.975,66.100 275.076 M85.800 275.200 L 83.400 275.466 85.400 275.510 C 86.500 275.534,88.120 275.405,89.000 275.223 C 91.001 274.809,89.436 274.798,85.800 275.200 M335.300 275.076 C 335.685 275.176,336.315 275.176,336.700 275.076 C 337.085 274.975,336.770 274.893,336.000 274.893 C 335.230 274.893,334.915 274.975,335.300 275.076 M354.200 275.200 L 352.200 275.474 354.000 275.490 C 354.990 275.498,356.340 275.368,357.000 275.200 C 358.577 274.799,357.125 274.799,354.200 275.200 M69.507 275.490 C 70.226 275.579,71.306 275.577,71.907 275.486 C 72.508 275.395,71.920 275.322,70.600 275.324 C 69.280 275.326,68.788 275.401,69.507 275.490 M338.707 275.490 C 339.426 275.579,340.506 275.577,341.107 275.486 C 341.708 275.395,341.120 275.322,339.800 275.324 C 338.480 275.326,337.988 275.401,338.707 275.490 " stroke="none" fill="#7d9cb4" fill-rule="evenodd"></path></g></svg>